<?xml version="1.0" encoding="UTF-8"?>
<svg version="1.1" xmlns="http://www.w3.org/2000/svg" width="200" height="50">
<path d="M0 0 C0.66 0.66 1.32 1.32 2 2 C4.13592982 2.42355123 4.13592982 2.42355123 6.5 2.5625 C10.81081081 2.90540541 10.81081081 2.90540541 13 4 C13 4.66 13 5.32 13 6 C13.56847656 6.00257812 14.13695313 6.00515625 14.72265625 6.0078125 C20.36172211 6.2902365 23.43797625 7.51388359 27.58984375 11.33203125 C30.16909554 14.382836 30.960505 16.70872441 31.5 20.6875 C31.7475 22.3271875 31.7475 22.3271875 32 24 C32.66 24.33 33.32 24.66 34 25 C35.27368421 32.17894737 35.27368421 32.17894737 34 36 C35.32 36.66 36.64 37.32 38 38 C38.125 40.375 38.125 40.375 38 43 C36 45 36 45 33.5625 45.375 C31 45 31 45 29.1875 43 C28.795625 42.34 28.40375 41.68 28 41 C27.29875 41.20625 26.5975 41.4125 25.875 41.625 C22.39813928 42.07850357 20.22601877 41.27540277 17 40 C17 39.34 17 38.68 17 38 C15.80375 37.9175 14.6075 37.835 13.375 37.75 C9.01592897 37.17238458 6.35076006 35.96999187 3 33 C0.23542804 28.89607019 -1.6312507 25.05000559 -1 20 C-1.66 20 -2.32 20 -3 20 C-4.26237731 17.47524538 -4.09856404 15.68799534 -4.0625 12.875 C-4.05347656 11.96492187 -4.04445313 11.05484375 -4.03515625 10.1171875 C-4.02355469 9.41851562 -4.01195312 8.71984375 -4 8 C-5.32 7.34 -6.64 6.68 -8 6 C-7.625 3.0625 -7.625 3.0625 -7 0 C-4.29393021 -1.35303489 -2.8671629 -0.7884698 0 0 Z M1 5 C2 7 2 7 2 7 Z M13 10 C13 10.33 13 10.66 13 11 C14.65 11 16.3 11 18 11 C18 10.67 18 10.34 18 10 C16.35 10 14.7 10 13 10 Z M0 14 C1 16 1 16 1 16 Z M5 15 C6 17 6 17 6 17 Z M9.5625 16.5625 C7.67105942 19.01746545 7.67105942 19.01746545 8.0625 22.5625 C9.03258577 26.5708469 9.03258577 26.5708469 12 29 C15.25996064 29.41616519 17.34303035 29.2766188 20.375 28 C22.5731703 25.29455964 22.5712063 23.2912076 22.3828125 19.875 C22.11521018 17.82672975 22.11521018 17.82672975 20.375 16 C16.25905973 14.26697252 13.37133957 14.12093617 9.5625 16.5625 Z M-1 16 C0 19 0 19 0 19 Z M25 16 C26 18 26 18 26 18 Z M4 17 C5 20 5 20 5 20 Z M26 19 C26 20.98 26 22.96 26 25 C26.33 25 26.66 25 27 25 C27 23.02 27 21.04 27 19 C26.67 19 26.34 19 26 19 Z M4 24 C5 27 5 27 5 27 Z M25 26 C26 28 26 28 26 28 Z M6 28 C7 30 7 30 7 30 Z " fill="#FEFEFE" transform="translate(10,3)"/>
<path d="M0 0 C5.61 0 11.22 0 17 0 C17.99 2.31 18.98 4.62 20 7 C20.99 4.69 21.98 2.38 23 0 C24.65 0 26.3 0 28 0 C24.22285217 14.4330039 24.22285217 14.4330039 20 20 C16.1875 21.125 16.1875 21.125 13 21 C13 19.68 13 18.36 13 17 C14.32 16.34 15.64 15.68 17 15 C15.68 11.37 14.36 7.74 13 4 C11.02 5.98 9.04 7.96 7 10 C8.65 10.33 10.3 10.66 12 11 C12 12.32 12 13.64 12 15 C8.04 15 4.08 15 0 15 C0.98425899 10.07870506 1.8162018 8.59461087 5 5 C3.35 4.67 1.7 4.34 0 4 C0 2.68 0 1.36 0 0 Z " fill="#FEFEFE" transform="translate(73,19)"/>
<path d="M0 0 C3.3 0 6.6 0 10 0 C10.33 0.66 10.66 1.32 11 2 C11.99 1.34 12.98 0.68 14 0 C16.9375 -0.4375 16.9375 -0.4375 20 0 C22.375 2.25 22.375 2.25 24 5 C24 6.32 24 7.64 24 9 C19.545 9.495 19.545 9.495 15 10 C18.70152678 10.92538169 19.63458162 11.08174162 23 10 C23 11.65 23 13.3 23 15 C21.39667209 15.08121924 19.79215974 15.13929134 18.1875 15.1875 C16.84751953 15.23970703 16.84751953 15.23970703 15.48046875 15.29296875 C13 15 13 15 11.1875 13.71875 C9.28150102 10.96006727 9.81644258 8.2428478 10 5 C8.68 5.33 7.36 5.66 6 6 C5.67 8.97 5.34 11.94 5 15 C3.35 15 1.7 15 0 15 C0 10.05 0 5.1 0 0 Z M15 4 C14.67 4.66 14.34 5.32 14 6 C15.65 6 17.3 6 19 6 C19 5.34 19 4.68 19 4 C17.68 4 16.36 4 15 4 Z " fill="#FEFEFE" transform="translate(157,19)"/>
<path d="M0 0 C1.65 0 3.3 0 5 0 C5 2.31 5 4.62 5 7 C6.98 6.67 8.96 6.34 11 6 C11 4.02 11 2.04 11 0 C12.65 0 14.3 0 16 0 C16 6.27 16 12.54 16 19 C14.35 19 12.7 19 11 19 C11 16.69 11 14.38 11 12 C8.03 11.505 8.03 11.505 5 11 C5 13.64 5 16.28 5 19 C3.35 19 1.7 19 0 19 C0 12.73 0 6.46 0 0 Z " fill="#FEFEFE" transform="translate(131,15)"/>
<path d="M0 0 C1.65 0 3.3 0 5 0 C5 6.93 5 13.86 5 21 C-5.45081967 21.36885246 -5.45081967 21.36885246 -7.83203125 19.76953125 C-9.30285386 17.54116121 -9.40156715 16.15671526 -9.375 13.5 C-9.38273438 12.7265625 -9.39046875 11.953125 -9.3984375 11.15625 C-8.90793334 8.50175691 -8.14236179 7.60295478 -6 6 C-3.3125 5.8125 -3.3125 5.8125 -1 6 C-0.67 4.02 -0.34 2.04 0 0 Z M-3 10 C-3.66 10.66 -4.32 11.32 -5 12 C-4.67958603 14.60280568 -4.67958603 14.60280568 -4 17 C-2.68 16.67 -1.36 16.34 0 16 C0 14.35 0 12.7 0 11 C-0.99 10.67 -1.98 10.34 -3 10 Z " fill="#FEFEFE" transform="translate(191,13)"/>
<path d="M0 0 C3.96 0 7.92 0 12 0 C12 1.32 12 2.64 12 4 C9.69 4 7.38 4 5 4 C5 4.99 5 5.98 5 7 C7.31 7 9.62 7 12 7 C12 8.32 12 9.64 12 11 C9.69 11 7.38 11 5 11 C5 12.32 5 13.64 5 15 C7.31 15 9.62 15 12 15 C12 16.32 12 17.64 12 19 C8.04 19 4.08 19 0 19 C0 12.73 0 6.46 0 0 Z " fill="#FEFEFE" transform="translate(59,15)"/>
<path d="M0 0 C0.66 0.33 1.32 0.66 2 1 C3.27368421 8.17894737 3.27368421 8.17894737 2 12 C3.32 12.66 4.64 13.32 6 14 C6.125 16.375 6.125 16.375 6 19 C4 21 4 21 1.5625 21.375 C-1 21 -1 21 -2.8125 19 C-3.204375 18.34 -3.59625 17.68 -4 17 C-4.70125 17.20625 -5.4025 17.4125 -6.125 17.625 C-9.60186072 18.07850357 -11.77398123 17.27540277 -15 16 C-15 15.34 -15 14.68 -15 14 C-13.7625 13.608125 -12.525 13.21625 -11.25 12.8125 C-4.9467777 10.43350604 -2.75704051 5.92763711 0 0 Z " fill="#EF8C30" transform="translate(42,27)"/>
<path d="M0 0 C0.66 0.66 1.32 1.32 2 2 C4.13592982 2.42355123 4.13592982 2.42355123 6.5 2.5625 C10.81081081 2.90540541 10.81081081 2.90540541 13 4 C13 4.66 13 5.32 13 6 C11.783125 6.350625 10.56625 6.70125 9.3125 7.0625 C4.6027671 8.81612395 2.2269885 11.55558089 0 16 C-0.37419023 17.3224487 -0.71910133 18.65464323 -1 20 C-1.66 20 -2.32 20 -3 20 C-4.26237731 17.47524538 -4.09856404 15.68799534 -4.0625 12.875 C-4.05347656 11.96492187 -4.04445313 11.05484375 -4.03515625 10.1171875 C-4.02355469 9.41851562 -4.01195312 8.71984375 -4 8 C-5.32 7.34 -6.64 6.68 -8 6 C-7.625 3.0625 -7.625 3.0625 -7 0 C-4.29393021 -1.35303489 -2.8671629 -0.7884698 0 0 Z M1 5 C2 7 2 7 2 7 Z " fill="#05A2D5" transform="translate(10,3)"/>
<path d="M0 0 C1.65 0 3.3 0 5 0 C6.4606285 2.64738916 7 3.89448334 7 7 C7.66 7 8.32 7 9 7 C9.33 5.02 9.66 3.04 10 1 C11.65 0.67 13.3 0.34 15 0 C14.38465894 4.51250112 13.24252899 8.49540861 11.625 12.75 C11.20476562 13.87921875 10.78453125 15.0084375 10.3515625 16.171875 C9 19 9 19 6 21 C3.3125 21.125 3.3125 21.125 1 21 C1 19.68 1 18.36 1 17 C2.32 17 3.64 17 5 17 C4.6390625 15.94039062 4.278125 14.88078125 3.90625 13.7890625 C3.43734207 12.40109501 2.96860069 11.01307125 2.5 9.625 C2.26152344 8.92632812 2.02304688 8.22765625 1.77734375 7.5078125 C0 2.2265625 0 2.2265625 0 0 Z " fill="#FEFEFE" transform="translate(107,19)"/>
<path d="M0 0 C1.32 0 2.64 0 4 0 C4 6.93 4 13.86 4 21 C2.68 21 1.36 21 0 21 C0 14.07 0 7.14 0 0 Z " fill="#FEFEFE" transform="translate(102,13)"/>
<path d="M0 0 C1.65 0 3.3 0 5 0 C5 4.95 5 9.9 5 15 C3.35 15 1.7 15 0 15 C0 10.05 0 5.1 0 0 Z " fill="#FEFEFE" transform="translate(150,19)"/>
<path d="M0 0 C3.63 0 7.26 0 11 0 C11 0.66 11 1.32 11 2 C10.45730469 2.18175781 9.91460937 2.36351562 9.35546875 2.55078125 C8.28232422 2.92783203 8.28232422 2.92783203 7.1875 3.3125 C6.12595703 3.67794922 6.12595703 3.67794922 5.04296875 4.05078125 C2.85109073 5.06918729 1.67201868 6.28965424 0 8 C-0.66 8 -1.32 8 -2 8 C-1.47731534 5.23723823 -0.89130413 2.6739124 0 0 Z " fill="#08A8D7" transform="translate(12,7)"/>
<path d="M0 0 C0 1.32 0 2.64 0 4 C-4.29299643 5.26264601 -6.87831311 4.62950412 -11 3 C-11 2.34 -11 1.68 -11 1 C-6.87831311 -0.62950412 -4.29299643 -1.26264601 0 0 Z " fill="#F68C33" transform="translate(38,40)"/>
<path d="M0 0 C1.32 0 2.64 0 4 0 C4 1.32 4 2.64 4 4 C3.34 4 2.68 4 2 4 C1.34 5.32 0.68 6.64 0 8 C-1.32 7.34 -2.64 6.68 -4 6 C-2.25 3 -2.25 3 0 0 Z " fill="#F39D54" transform="translate(39,33)"/>
<path d="M0 0 C0.66 0.33 1.32 0.66 2 1 C3.425 8.3625 3.425 8.3625 1 12 C0.34 11.34 -0.32 10.68 -1 10 C-0.34 10 0.32 10 1 10 C1 8.68 1 7.36 1 6 C0.01 6 -0.98 6 -2 6 C-1.34 4.02 -0.68 2.04 0 0 Z " fill="#E87620" transform="translate(42,27)"/>
<path d="M0 0 C1.65 0 3.3 0 5 0 C4.67 1.65 4.34 3.3 4 5 C2.68 5 1.36 5 0 5 C0 3.35 0 1.7 0 0 Z " fill="#43B8D2" transform="translate(3,3)"/>
<path d="M0 0 C-1.04874998 2.62187494 -1.64931313 3.79371361 -4.125 5.25 C-4.74375 5.4975 -5.3625 5.745 -6 6 C-5.625 3.5625 -5.625 3.5625 -5 1 C-3 0 -3 0 0 0 Z " fill="#55C6E5" transform="translate(16,9)"/>
<path d="M0 0 C1.65 0 3.3 0 5 0 C5 1.32 5 2.64 5 4 C3.35 4 1.7 4 0 4 C0 2.68 0 1.36 0 0 Z " fill="#FEFEFE" transform="translate(150,14)"/>
<path d="M0 0 C0.99 0 1.98 0 3 0 C3 1.65 3 3.3 3 5 C1.68 5 0.36 5 -1 5 C-0.67 3.35 -0.34 1.7 0 0 Z " fill="#F8B771" transform="translate(44,42)"/>
<path d="M0 0 C0.33 0.99 0.66 1.98 1 3 C3.32206525 3.70491267 5.65593068 4.37212429 8 5 C8.33 5.66 8.66 6.32 9 7 C7.68 6.67 6.36 6.34 5 6 C4.67 6.66 4.34 7.32 4 8 C4 7.34 4 6.68 4 6 C2.68 5.34 1.36 4.68 0 4 C0 2.68 0 1.36 0 0 Z " fill="#028DDE" transform="translate(2,5)"/>
</svg>
