<?xml version="1.0" encoding="UTF-8"?>
<svg version="1.1" xmlns="http://www.w3.org/2000/svg" width="200" height="50">
<path d="M0 0 C2.625 0.3125 2.625 0.3125 4.4375 2.3125 C4.829375 2.9725 5.22125 3.6325 5.625 4.3125 C5.955 3.9825 6.285 3.6525 6.625 3.3125 C8.15019276 3.40187803 9.67181929 3.55787146 11.1875 3.75 C12.01378906 3.85183594 12.84007813 3.95367187 13.69140625 4.05859375 C14.32949219 4.14238281 14.96757812 4.22617188 15.625 4.3125 C15.625 4.9725 15.625 5.6325 15.625 6.3125 C16.800625 6.35375 17.97625 6.395 19.1875 6.4375 C23.48317589 7.00211814 26.07507568 8.48127818 29.22265625 11.421875 C31.29656203 14.21789282 31.79205165 16.95180353 32.23828125 20.359375 C32.48191402 22.5402806 32.48191402 22.5402806 34.625 24.3125 C34.96570409 26.58529815 35.06641829 28.82672264 35.18359375 31.12109375 C35.71473051 33.75797625 36.72566317 34.49529666 38.625 36.3125 C38.3125 39 38.3125 39 37.625 41.3125 C34.655 41.8075 34.655 41.8075 31.625 42.3125 C30.965 40.9925 30.305 39.6725 29.625 38.3125 C28.5525 38.51875 27.48 38.725 26.375 38.9375 C22.74880904 39.3001191 21.54208924 39.29612069 18.625 37.3125 C18.625 36.9825 18.625 36.6525 18.625 36.3125 C17.75488281 36.21775391 17.75488281 36.21775391 16.8671875 36.12109375 C11.05499182 35.20994096 8.28794538 33.64836172 4.71875 28.96875 C2.50762627 25.62047692 2.53830184 23.30061534 2.625 19.3125 C1.965 19.3125 1.305 19.3125 0.625 19.3125 C-0.57772819 16.90704362 -0.47571472 15.36253047 -0.4375 12.6875 C-0.42847656 11.87023438 -0.41945313 11.05296875 -0.41015625 10.2109375 C-0.39855469 9.58445312 -0.38695312 8.95796875 -0.375 8.3125 C-1.365 7.9825 -2.355 7.6525 -3.375 7.3125 C-3.41754356 5.31295254 -3.41580783 3.31208364 -3.375 1.3125 C-2.375 0.3125 -2.375 0.3125 0 0 Z M14.625 10.3125 C14.625 10.6425 14.625 10.9725 14.625 11.3125 C16.275 11.3125 17.925 11.3125 19.625 11.3125 C19.625 10.9825 19.625 10.6525 19.625 10.3125 C17.975 10.3125 16.325 10.3125 14.625 10.3125 Z M12.875 16.4375 C10.29758624 19.12240029 10.29758624 19.12240029 10.625 22.5 C11.41237233 25.60273828 11.41237233 25.60273828 14.625 27.3125 C17.74526907 27.63752803 19.77247535 27.82401479 22.5 26.1875 C24.19952613 23.35495644 24.15341321 21.54903093 23.625 18.3125 C21.42011741 15.84833866 21.42011741 15.84833866 18.625 14.3125 C15.44141589 14.00677625 15.44141589 14.00677625 12.875 16.4375 Z M2.625 15.3125 C3.625 17.3125 3.625 17.3125 3.625 17.3125 Z M26.625 17.3125 C27.625 19.3125 27.625 19.3125 27.625 19.3125 Z M6.625 18.3125 C6.625 20.2925 6.625 22.2725 6.625 24.3125 C6.955 24.3125 7.285 24.3125 7.625 24.3125 C7.625 22.3325 7.625 20.3525 7.625 18.3125 C7.295 18.3125 6.965 18.3125 6.625 18.3125 Z M26.625 23.3125 C27.625 25.3125 27.625 25.3125 27.625 25.3125 Z " fill="#414141" transform="translate(14.375,4.6875)"/>
<path d="M0 0 C1.32 0 2.64 0 4 0 C4 2.31 4 4.62 4 7 C5.98 7 7.96 7 10 7 C10 4.69 10 2.38 10 0 C11.32 0 12.64 0 14 0 C14 5.94 14 11.88 14 18 C12.68 18 11.36 18 10 18 C10 15.69 10 13.38 10 11 C8.02 11 6.04 11 4 11 C4 13.31 4 15.62 4 18 C2.68 18 1.36 18 0 18 C0 12.06 0 6.12 0 0 Z " fill="#414141" transform="translate(129,16)"/>
<path d="M0 0 C1.32 0 2.64 0 4 0 C4 6.27 4 12.54 4 19 C-4.3984375 19.1953125 -4.3984375 19.1953125 -7 19 C-9.40346379 16.59653621 -9.32083747 15.86099805 -9.375 12.5625 C-9.27310159 8.3439057 -9.27310159 8.3439057 -7.3125 5.875 C-4.46377442 4.79710384 -2.87657748 5.12104577 0 6 C0 4.02 0 2.04 0 0 Z M-4 9 C-4.33 10.65 -4.66 12.3 -5 14 C-3.515 14.99 -3.515 14.99 -2 16 C-1.34 14.68 -0.68 13.36 0 12 C-0.66 11.01 -1.32 10.02 -2 9 C-2.66 9 -3.32 9 -4 9 Z " fill="#404040" transform="translate(184,15)"/>
<path d="M0 0 C2.77043597 2.77043597 2.36516642 5.02116183 2.55859375 8.80859375 C3.08973051 11.44547625 4.10066317 12.18279666 6 14 C5.6875 16.6875 5.6875 16.6875 5 19 C3.02 19.33 1.04 19.66 -1 20 C-1.66 18.68 -2.32 17.36 -3 16 C-4.0725 16.20625 -5.145 16.4125 -6.25 16.625 C-9.87619096 16.9876191 -11.08291076 16.98362069 -14 15 C-12 13 -12 13 -9.125 11.6875 C-4.07696784 8.96156263 -1.83208736 5.34358812 0 0 Z " fill="#EE8424" transform="translate(47,27)"/>
<path d="M0 0 C3.63 0 7.26 0 11 0 C11 1.32 11 2.64 11 4 C8.69 4 6.38 4 4 4 C4 4.99 4 5.98 4 7 C5.98 7 7.96 7 10 7 C10 8.32 10 9.64 10 11 C8.02 11 6.04 11 4 11 C4 11.99 4 12.98 4 14 C6.31 14 8.62 14 11 14 C11 15.32 11 16.64 11 18 C7.37 18 3.74 18 0 18 C0 12.06 0 6.12 0 0 Z " fill="#414141" transform="translate(63,16)"/>
<path d="M0 0 C2.625 0.3125 2.625 0.3125 4.4375 2.3125 C4.829375 2.9725 5.22125 3.6325 5.625 4.3125 C5.955 3.9825 6.285 3.6525 6.625 3.3125 C8.15019276 3.40187803 9.67181929 3.55787146 11.1875 3.75 C12.01378906 3.85183594 12.84007813 3.95367187 13.69140625 4.05859375 C14.32949219 4.14238281 14.96757812 4.22617188 15.625 4.3125 C15.625 4.9725 15.625 5.6325 15.625 6.3125 C15.09390625 6.54324219 14.5628125 6.77398438 14.015625 7.01171875 C9.45211528 9.11859459 6.3666979 10.92578336 3.625 15.3125 C2.84666466 17.49464568 2.84666466 17.49464568 2.625 19.3125 C1.965 19.3125 1.305 19.3125 0.625 19.3125 C-0.57772819 16.90704362 -0.47571472 15.36253047 -0.4375 12.6875 C-0.42847656 11.87023438 -0.41945313 11.05296875 -0.41015625 10.2109375 C-0.39855469 9.58445312 -0.38695312 8.95796875 -0.375 8.3125 C-1.365 7.9825 -2.355 7.6525 -3.375 7.3125 C-3.41754356 5.31295254 -3.41580783 3.31208364 -3.375 1.3125 C-2.375 0.3125 -2.375 0.3125 0 0 Z " fill="#05A4CC" transform="translate(14.375,4.6875)"/>
<path d="M0 0 C1.65 0 3.3 0 5 0 C5.66 1.65 6.32 3.3 7 5 C7.66 3.35 8.32 1.7 9 0 C10.65 0 12.3 0 14 0 C13.04832179 2.62758953 12.08902879 5.25194493 11.125 7.875 C10.85558594 8.62136719 10.58617188 9.36773437 10.30859375 10.13671875 C8.2265625 15.7734375 8.2265625 15.7734375 6 18 C3.375 18.125 3.375 18.125 1 18 C1 17.01 1 16.02 1 15 C1.66 14.67 2.32 14.34 3 14 C2.86722656 13.40832031 2.73445313 12.81664062 2.59765625 12.20703125 C1.68994822 8.14553475 0.7908887 4.08625829 0 0 Z " fill="#414141" transform="translate(87,21)"/>
<path d="M0 0 C2.375 0.25 2.375 0.25 5 1 C6.3125 3.0625 6.3125 3.0625 7 5 C7.66 3.35 8.32 1.7 9 0 C10.65 0 12.3 0 14 0 C13.04832179 2.62758953 12.08902879 5.25194493 11.125 7.875 C10.85558594 8.62136719 10.58617188 9.36773437 10.30859375 10.13671875 C8.2265625 15.7734375 8.2265625 15.7734375 6 18 C2.875 18.125 2.875 18.125 0 18 C0.495 16.515 0.495 16.515 1 15 C1.66 14.67 2.32 14.34 3 14 C2.44600983 10.02973711 1.50059058 6.70145675 0 3 C0 2.01 0 1.02 0 0 Z " fill="#404040" transform="translate(107,21)"/>
<path d="M0 0 C2.16898181 2.85911239 2 4.28443578 2 8 C-0.31 8.33 -2.62 8.66 -5 9 C-3.02 9 -1.04 9 1 9 C1 10.32 1 11.64 1 13 C-7.16221766 13.61601643 -7.16221766 13.61601643 -10.125 11.4375 C-11.39144915 7.90953451 -10.97805885 5.58621578 -10 2 C-6.9622646 -1.600279 -4.32937941 -1.41175416 0 0 Z M-6 3 C-6 3.66 -6 4.32 -6 5 C-4.68 4.67 -3.36 4.34 -2 4 C-3.32 3.67 -4.64 3.34 -6 3 Z " fill="#404040" transform="translate(172,21)"/>
<path d="M0 0 C3.63 0 7.26 0 11 0 C10.10429689 4.47851553 9.74999027 5.77175056 7 9 C8.65 9.33 10.3 9.66 12 10 C12 10.99 12 11.98 12 13 C8.04 13 4.08 13 0 13 C0.98425899 8.07870506 1.8162018 6.59461087 5 3 C3.35 3 1.7 3 0 3 C0 2.01 0 1.02 0 0 Z " fill="#404040" transform="translate(75,21)"/>
<path d="M0 0 C1.32 0 2.64 0 4 0 C4 6.27 4 12.54 4 19 C2.68 19 1.36 19 0 19 C0 12.73 0 6.46 0 0 Z " fill="#414141" transform="translate(102,15)"/>
<path d="M0 0 C2.97 0 5.94 0 9 0 C9 1.32 9 2.64 9 4 C8.01 4.33 7.02 4.66 6 5 C5.67 7.64 5.34 10.28 5 13 C3.68 13 2.36 13 1 13 C0.67 8.71 0.34 4.42 0 0 Z " fill="#424242" transform="translate(152,21)"/>
<path d="M0 0 C0.99 0 1.98 0 3 0 C2.42198762 3.90158354 0.41713779 5.97857777 -2 9 C-2.77833534 11.18214568 -2.77833534 11.18214568 -3 13 C-3.66 13 -4.32 13 -5 13 C-6.60725635 9.78548731 -6.05748185 6.56387464 -6 3 C-5.34 2.67 -4.68 2.34 -4 2 C-3.01 2.33 -2.02 2.66 -1 3 C-0.67 2.01 -0.34 1.02 0 0 Z " fill="#0BA7D2" transform="translate(20,11)"/>
<path d="M0 0 C1.4540625 0.0309375 1.4540625 0.0309375 2.9375 0.0625 C3.625 2.375 3.625 2.375 3.9375 5.0625 C2.8125 6.9375 2.8125 6.9375 0.9375 8.0625 C-1.75 7.75 -1.75 7.75 -4.0625 7.0625 C-4.10504356 5.06295254 -4.10330783 3.06208364 -4.0625 1.0625 C-3.0625 0.0625 -3.0625 0.0625 0 0 Z " fill="#F39030" transform="translate(49.0625,38.9375)"/>
<path d="M0 0 C1.32 0 2.64 0 4 0 C4 4.29 4 8.58 4 13 C2.68 13 1.36 13 0 13 C0 8.71 0 4.42 0 0 Z " fill="#424242" transform="translate(146,21)"/>
<path d="M0 0 C0.66 0.66 1.32 1.32 2 2 C2.33 1.67 2.66 1.34 3 1 C4.52519276 1.08937803 6.04681929 1.24537146 7.5625 1.4375 C8.38878906 1.53933594 9.21507812 1.64117187 10.06640625 1.74609375 C10.70449219 1.82988281 11.34257812 1.91367188 12 2 C12 2.66 12 3.32 12 4 C9.69 4.66 7.38 5.32 5 6 C5 5.34 5 4.68 5 4 C1.88214887 4.64644661 1.88214887 4.64644661 1 7 C0.34 7 -0.32 7 -1 7 C-0.67 4.69 -0.34 2.38 0 0 Z " fill="#049DCE" transform="translate(18,7)"/>
<path d="M0 0 C0 1.65 0 3.3 0 5 C-0.639375 5.268125 -1.27875 5.53625 -1.9375 5.8125 C-4.33131686 6.88667752 -4.33131686 6.88667752 -5 10 C-6.98 10 -8.96 10 -11 10 C-2.78082192 0 -2.78082192 0 0 0 Z " fill="#F39C49" transform="translate(48,32)"/>
<path d="M0 0 C1.32 0 2.64 0 4 0 C3.67 1.65 3.34 3.3 3 5 C1.35 5 -0.3 5 -2 5 C-1.125 1.125 -1.125 1.125 0 0 Z " fill="#F4A75A" transform="translate(49,41)"/>
<path d="M0 0 C0 3 0 3 -1 6 C-2.98 6 -4.96 6 -7 6 C-6.21625 5.38125 -5.4325 4.7625 -4.625 4.125 C-2.03162353 2.10141339 -2.03162353 2.10141339 0 0 Z " fill="#F6B066" transform="translate(44,36)"/>
<path d="M0 0 C0.99 0 1.98 0 3 0 C2.67 1.32 2.34 2.64 2 4 C0.68 4.33 -0.64 4.66 -2 5 C-1.34 3.35 -0.68 1.7 0 0 Z " fill="#48BCDD" transform="translate(20,11)"/>
<path d="M0 0 C1.65 0 3.3 0 5 0 C4.67 1.32 4.34 2.64 4 4 C2.68 4 1.36 4 0 4 C0 2.68 0 1.36 0 0 Z " fill="#44BBD9" transform="translate(11,6)"/>
<path d="M0 0 C1.32 0 2.64 0 4 0 C4 1.32 4 2.64 4 4 C2.68 4 1.36 4 0 4 C0 2.68 0 1.36 0 0 Z " fill="#404040" transform="translate(146,15)"/>
</svg>
